<?xml version="1.0" standalone="no"?>
<!DOCTYPE svg PUBLIC "-//W3C//DTD SVG 20010904//EN"
 "http://www.w3.org/TR/2001/REC-SVG-20010904/DTD/svg10.dtd">
<svg version="1.0" xmlns="http://www.w3.org/2000/svg"
 width="700.000000pt" height="700.000000pt" viewBox="0 0 700.000000 700.000000"
 preserveAspectRatio="xMidYMid meet">
<metadata>
Created by potrace 1.11, written by Peter Selinger 2001-2013
</metadata>
<g transform="translate(0.000000,700.000000) scale(0.100000,-0.100000)"
fill="#000000" stroke="none">
<path d="M1335 5458 c-16 -5 -42 -18 -57 -31 -15 -12 -130 -202 -257 -422
-127 -220 -235 -407 -240 -415 -6 -8 -34 -58 -64 -110 -30 -52 -146 -252 -257
-445 -273 -471 -265 -457 -278 -494 -24 -68 -9 -132 41 -179 51 -48 43 -48
1010 -47 499 1 907 -1 907 -3 0 -2 -304 -531 -398 -692 -11 -19 -43 -73 -69
-120 -27 -47 -82 -141 -121 -209 -40 -69 -72 -127 -72 -130 0 -2 -6 -12 -14
-20 -7 -9 -25 -36 -38 -61 -14 -25 -65 -114 -113 -199 -68 -118 -89 -165 -93
-201 -7 -73 32 -136 101 -165 32 -13 273 -15 2165 -15 l2129 0 44 23 c51 27
19 -24 406 647 154 267 315 546 358 620 43 74 101 176 130 225 28 50 87 151
130 225 97 167 117 212 111 247 -2 16 -5 36 -5 45 -1 26 -60 87 -99 103 -29
13 -172 15 -952 15 l-918 0 155 268 c85 147 163 283 174 302 11 19 29 51 40
70 18 30 249 429 306 527 10 18 61 106 113 195 132 228 135 235 134 295 -1 59
-33 111 -87 140 -30 17 -159 18 -2162 19 -1172 0 -2143 -3 -2160 -8z m1855
-326 c0 -1 -84 -147 -186 -325 -103 -177 -196 -338 -207 -357 -10 -19 -87
-152 -170 -294 -82 -143 -159 -277 -170 -298 l-21 -38 -27 42 c-72 116 -728
1261 -725 1267 4 6 1506 9 1506 3z m2094 -3 c5 -4 -206 -375 -439 -774 -29
-49 -110 -189 -180 -310 -70 -121 -128 -221 -130 -223 -2 -2 -43 65 -81 134
-14 27 -481 835 -591 1023 -46 80 -79 147 -74 150 11 7 1488 7 1495 0z m-3772
-389 c137 -237 618 -1071 625 -1082 2 -5 -338 -8 -756 -8 l-760 0 57 98 c32
53 61 104 65 112 4 8 13 24 20 35 7 11 42 72 78 135 157 271 429 740 465 803
66 116 75 130 79 125 2 -2 59 -100 127 -218z m2159 -100 c100 -173 192 -333
205 -355 12 -22 99 -173 193 -335 l170 -295 -751 -3 c-413 -1 -753 0 -755 2
-2 2 79 147 180 322 101 176 268 465 372 644 103 179 190 329 192 333 3 5 6 7
8 5 2 -2 85 -145 186 -318z m569 -1327 c0 -1 -22 -40 -49 -85 -50 -85 -375
-647 -395 -683 -6 -11 -78 -136 -160 -278 -119 -205 -152 -255 -161 -245 -7 7
-57 92 -112 188 -55 96 -167 290 -248 430 -247 427 -376 651 -381 663 -3 9
180 12 751 12 415 0 755 -1 755 -2z m2100 0 c0 -3 -67 -121 -81 -143 -8 -13
-111 -191 -159 -275 -9 -16 -61 -106 -115 -200 -417 -723 -404 -701 -412 -678
-4 10 -115 203 -468 813 -62 107 -123 213 -135 235 -12 22 -47 81 -76 131 -29
50 -56 98 -59 106 -5 12 97 14 750 14 415 0 755 -1 755 -3z m-3869 -230 c18
-32 38 -67 44 -78 22 -38 468 -811 532 -918 34 -60 63 -110 63 -113 0 -2 18
-33 40 -69 22 -36 40 -67 40 -68 0 -6 -1498 -2 -1504 4 -4 3 124 231 283 506
159 276 297 514 306 530 9 15 30 53 48 83 18 30 48 83 67 118 19 34 38 62 42
62 3 0 21 -26 39 -57z m2341 -418 c146 -253 275 -476 286 -495 10 -19 58 -102
106 -184 47 -82 86 -150 86 -151 0 -1 -340 -1 -755 -1 -415 0 -755 2 -755 4 0
3 19 37 41 76 23 39 50 87 61 106 67 117 623 1079 635 1099 8 13 18 19 22 15
5 -5 127 -216 273 -469z"/>
</g>
</svg>
