<?xml version="1.0" encoding="utf-8"?>
<!-- Generator: Adobe Illustrator 18.0.0, SVG Export Plug-In . SVG Version: 6.00 Build 0)  -->
<!DOCTYPE svg PUBLIC "-//W3C//DTD SVG 1.1//EN" "http://www.w3.org/Graphics/SVG/1.1/DTD/svg11.dtd">
<svg version="1.1" id="Layer_3" xmlns="http://www.w3.org/2000/svg" xmlns:xlink="http://www.w3.org/1999/xlink" x="0px" y="0px"
	 viewBox="437.2 593.2 372.7 61.8" enable-background="new 437.2 593.2 372.7 61.8" xml:space="preserve">
<g>
	<path fill="#FFFFFF" d="M594.3,609.5h12.6c-0.1-6.5-3.2-10.2-8.6-10.2c-5.4,0-8.9,3.7-8.9,9.4c0,2.2,0.7,9.2,9.8,9.2
		c3.7,0,5.7-0.8,6.5-1.1v-3.4c-0.9,0.4-2.7,1.1-5.4,1.1C596.7,614.5,594.5,612.5,594.3,609.5z M576.5,602.9h2.5V613
		c0,3,2.2,4.9,5.7,4.9c1.7,0,3.4-0.4,3.8-0.5v-3.1c-0.8,0.2-1.5,0.2-2,0.2c-2.2,0-3-0.9-3-3.4v-8.2h4.8v-3.2h-4.8v-3.9h-4.5v3.9
		h-2.5V602.9z M562.9,603.1c0.2-0.1,1.6-0.6,3-0.6c2.7,0,3.8,1.1,3.8,3.6v1h-2.4c-6,0-9.1,1.9-9.1,5.6c0,3.1,2.3,5.1,5.9,5.1
		c3.7,0,5.4-2.2,5.9-2.9l0.1,0l0.1,2.5h5.5v-3.2h-1.9v-8c0-4.6-2.7-6.9-8.1-6.9c-3.2,0-6.1,1.5-6.7,1.8v4.3h3.8V603.1z M544.8,602.9
		h2.5V613c0,3,2.2,4.9,5.7,4.9c1.7,0,3.4-0.4,3.8-0.5v-3.1c-0.5,0.1-1.3,0.2-2,0.2c-2.2,0-3-0.9-3-3.4v-8.2h4.8v-3.2h-4.8v-3.9h-4.5
		v3.9h-2.5V602.9z M529.7,613.6v-3.1h-4.2v6.1c2.6,0.9,5.1,1.3,8.1,1.3c6,0,9.3-2.7,9.3-7.5c0-4.9-3.6-6.3-7-7.2l-2.4-0.6
		c-2-0.5-3-1.5-3-3.1c0-1.5,1.3-3.1,4.1-3.1c1.2,0,2.5,0.4,3,0.6v2.9h4.2v-5.5c-2-0.8-4.7-1.2-7.4-1.2c-5.7,0-8.9,2.4-8.9,6.7
		c0,3.9,1.8,5.9,6.2,7.1l2.1,0.6c2.9,0.8,4.1,1.8,4.1,3.6c0,2-1.4,3.1-4,3.1C532.6,614.3,530.6,613.8,529.7,613.6z M463.3,609.5
		h12.6c-0.1-6.5-3.2-10.2-8.6-10.2c-5.4,0-8.9,3.7-8.9,9.4c0,2.2,0.7,9.2,9.8,9.2c3.7,0,5.7-0.8,6.5-1.1v-3.4
		c-0.9,0.4-2.7,1.1-5.4,1.1C465.7,614.5,463.5,612.5,463.3,609.5z M490.6,617.5h8.5v-3.2H497v-7.9c0-4.3-2.7-7-6.8-7
		c-3.4,0-5.2,2-5.7,2.8l-0.1,0l-0.1-2.4H478v3.2h2.4v11.4h-2v3.2h8.5v-3.2h-2.1v-7.1c0-2.6,1.4-4.1,3.8-4.1c2.5,0,3.9,1.5,3.9,4.1
		v7.1h-2V617.5z M437.7,617.5h9.5v-3.2h-2.4v-6.2h3.9c5.5,0,8.7-2.7,8.7-7.3c0-4.5-3.3-7.3-8.7-7.3h-10.9v3.2h2.4v17.5h-2.4V617.5z
		 M565.6,614.7c-2.1,0-2.8-1.3-2.8-2.4c0-1.8,1.6-2.6,5.4-2.6h1.5v0.2C569.7,613.2,567.6,614.7,565.6,614.7z M594.3,606.5
		c0.2-2.6,1.7-4.3,3.9-4.3c2.4,0,3.8,1.5,3.8,4.1v0.2H594.3z M463.3,606.5c0.2-2.7,1.6-4.3,3.9-4.3c2.4,0,3.8,1.5,3.8,4.1v0.2H463.3
		z M448.1,605h-3.3v-8.2h3.3c2.7,0,4.4,1.6,4.4,4.1C452.4,603.4,450.8,605,448.1,605z M513.7,617.5h8.5v-3.2h-2.1v-7.9
		c0-4.3-2.7-7-6.8-7c-3.4,0-5.2,2-5.7,2.8l-0.1,0l-0.1-2.4h-6.3v3.2h2.4v11.4h-2v3.2h8.5v-3.2H508v-7.1c0-2.6,1.4-4.1,3.8-4.1
		c2.5,0,3.9,1.5,3.9,4.1v7.1h-2V617.5z M451.7,648.5c-0.9,0.5-2.7,0.9-5,0.9c-5.4,0-9.4-3.4-9.4-9.6c0-6,4-10,9.9-10
		c2.4,0,3.9,0.5,4.5,0.8l-0.6,2c-0.9-0.4-2.3-0.8-3.8-0.8c-4.5,0-7.4,2.9-7.4,7.8c0,4.7,2.7,7.7,7.3,7.7c1.5,0,3-0.3,4-0.8
		L451.7,648.5z M466.7,642.1c0,5.1-3.5,7.3-6.8,7.3c-3.7,0-6.6-2.7-6.6-7c0-4.6,3-7.3,6.8-7.3C464.1,635.1,466.7,638,466.7,642.1z
		 M455.9,642.3c0,3,1.7,5.3,4.2,5.3c2.4,0,4.2-2.2,4.2-5.3c0-2.3-1.2-5.3-4.1-5.3C457.1,637,455.9,639.7,455.9,642.3z M469.8,629
		h2.5v20h-2.5V629z M476.5,629h2.5v20h-2.5V629z M484.5,642.7c0.1,3.4,2.2,4.7,4.7,4.7c1.8,0,2.9-0.3,3.8-0.7l0.4,1.8
		c-0.9,0.4-2.4,0.8-4.5,0.8c-4.2,0-6.7-2.8-6.7-6.9c0-4.1,2.4-7.4,6.4-7.4c4.5,0,5.6,3.9,5.6,6.4c0,0.5-0.1,0.9-0.1,1.2H484.5z
		 M491.8,640.9c0-1.6-0.6-4-3.4-4c-2.5,0-3.6,2.3-3.8,4H491.8z M509.1,635.4c-0.1,1-0.1,2.1-0.1,3.8v7.9c0,3.1-0.6,5.1-1.9,6.2
		c-1.3,1.2-3.2,1.6-5,1.6c-1.6,0-3.4-0.4-4.5-1.1l0.6-1.9c0.9,0.6,2.3,1.1,4,1.1c2.5,0,4.4-1.3,4.4-4.8v-1.5h-0.1
		c-0.8,1.3-2.2,2.3-4.3,2.3c-3.4,0-5.8-2.9-5.8-6.7c0-4.6,3-7.3,6.2-7.3c2.4,0,3.7,1.2,4.3,2.4h0.1l0.1-2.1H509.1z M506.5,640.8
		c0-0.4,0-0.8-0.1-1.1c-0.5-1.4-1.7-2.6-3.5-2.6c-2.4,0-4.1,2-4.1,5.2c0,2.7,1.4,4.9,4,4.9c1.5,0,2.9-1,3.4-2.5
		c0.1-0.4,0.2-0.9,0.2-1.3V640.8z M514.5,642.7c0.1,3.4,2.2,4.7,4.7,4.7c1.8,0,2.9-0.3,3.8-0.7l0.4,1.8c-0.9,0.4-2.4,0.8-4.5,0.8
		c-4.2,0-6.7-2.8-6.7-6.9c0-4.1,2.4-7.4,6.4-7.4c4.5,0,5.6,3.9,5.6,6.4c0,0.5-0.1,0.9-0.1,1.2H514.5z M521.8,640.9
		c0-1.6-0.6-4-3.4-4c-2.5,0-3.6,2.3-3.8,4H521.8z M545.6,642.1c0,5.1-3.5,7.3-6.8,7.3c-3.7,0-6.6-2.7-6.6-7c0-4.6,3-7.3,6.8-7.3
		C542.9,635.1,545.6,638,545.6,642.1z M534.7,642.3c0,3,1.7,5.3,4.2,5.3c2.4,0,4.2-2.2,4.2-5.3c0-2.3-1.2-5.3-4.1-5.3
		C536,637,534.7,639.7,534.7,642.3z M549,649.1v-11.8h-1.9v-1.9h1.9v-0.6c0-1.9,0.4-3.7,1.6-4.8c0.9-0.9,2.2-1.3,3.3-1.3
		c0.9,0,1.6,0.2,2.1,0.4l-0.3,1.9c-0.4-0.2-0.9-0.3-1.6-0.3c-2.1,0-2.7,1.9-2.7,4v0.7h3.3v1.9h-3.3v11.8H549z M566.1,643.1l-2,6
		h-2.5l6.5-19h3l6.5,19h-2.6l-2-6H566.1z M572.4,641.2l-1.9-5.5c-0.4-1.2-0.7-2.4-1-3.5h-0.1c-0.3,1.1-0.6,2.3-1,3.4l-1.9,5.5H572.4
		z M580.1,639.7c0-1.6,0-3-0.1-4.3h2.2l0.1,2.7h0.1c0.6-1.8,2.1-3,3.8-3c0.3,0,0.5,0,0.7,0.1v2.3c-0.3-0.1-0.5-0.1-0.8-0.1
		c-1.8,0-3,1.3-3.3,3.2c-0.1,0.3-0.1,0.7-0.1,1.2v7.3h-2.5V639.7z M593,631.5v3.9h3.6v1.9H593v7.4c0,1.7,0.5,2.7,1.9,2.7
		c0.6,0,1.1-0.1,1.4-0.2l0.1,1.9c-0.5,0.2-1.2,0.3-2.2,0.3c-1.2,0-2.1-0.4-2.7-1c-0.7-0.7-1-1.9-1-3.6v-7.5h-2.1v-1.9h2.1v-3.3
		L593,631.5z M599.1,646.5c0.7,0.5,2,1,3.3,1c1.8,0,2.7-0.9,2.7-2c0-1.2-0.7-1.8-2.5-2.5c-2.5-0.9-3.6-2.2-3.6-3.9
		c0-2.2,1.8-4,4.7-4c1.4,0,2.6,0.4,3.4,0.8l-0.6,1.8c-0.5-0.3-1.5-0.8-2.8-0.8c-1.5,0-2.3,0.8-2.3,1.9c0,1.1,0.8,1.6,2.6,2.3
		c2.4,0.9,3.6,2.1,3.6,4.1c0,2.4-1.9,4.1-5.1,4.1c-1.5,0-2.9-0.4-3.8-0.9L599.1,646.5z M624,649.1l-0.2-1.7h-0.1
		c-0.8,1.1-2.2,2-4.2,2c-2.8,0-4.2-1.9-4.2-3.9c0-3.3,2.9-5.1,8.2-5.1v-0.3c0-1.1-0.3-3.2-3.1-3.2c-1.3,0-2.6,0.4-3.6,1l-0.6-1.6
		c1.1-0.7,2.8-1.2,4.5-1.2c4.2,0,5.2,2.9,5.2,5.6v5.1c0,1.2,0.1,2.3,0.2,3.3H624z M623.6,642.1c-2.7-0.1-5.8,0.4-5.8,3.1
		c0,1.6,1.1,2.4,2.3,2.4c1.8,0,2.9-1.1,3.3-2.3c0.1-0.3,0.1-0.5,0.1-0.8V642.1z M630,639.1c0-1.4,0-2.6-0.1-3.7h2.2l0.1,2.3h0.1
		c0.7-1.3,2.3-2.6,4.5-2.6c1.9,0,4.8,1.1,4.8,5.8v8.2h-2.5v-7.9c0-2.2-0.8-4-3.2-4c-1.6,0-2.9,1.2-3.3,2.5c-0.1,0.3-0.2,0.7-0.2,1.2
		v8.2H630V639.1z M657.5,629v16.5c0,1.2,0,2.6,0.1,3.5h-2.2l-0.1-2.4h-0.1c-0.8,1.5-2.4,2.7-4.7,2.7c-3.3,0-5.8-2.8-5.8-6.9
		c0-4.5,2.8-7.3,6.1-7.3c2.1,0,3.5,1,4.1,2.1h0.1V629H657.5z M655,641c0-0.3,0-0.7-0.1-1c-0.4-1.6-1.7-2.9-3.6-2.9
		c-2.6,0-4.1,2.3-4.1,5.3c0,2.8,1.4,5.1,4,5.1c1.7,0,3.2-1.1,3.6-3c0.1-0.3,0.1-0.7,0.1-1.1V641z M670.8,643.1l-2,6h-2.5l6.5-19h3
		l6.5,19h-2.6l-2-6H670.8z M677,641.2l-1.9-5.5c-0.4-1.2-0.7-2.4-1-3.5h-0.1c-0.3,1.1-0.6,2.3-1,3.4l-1.9,5.5H677z M684.8,639.7
		c0-1.6,0-3-0.1-4.3h2.2l0.1,2.7h0.1c0.6-1.8,2.1-3,3.8-3c0.3,0,0.5,0,0.7,0.1v2.3c-0.3-0.1-0.5-0.1-0.8-0.1c-1.8,0-3,1.3-3.3,3.2
		c-0.1,0.3-0.1,0.7-0.1,1.2v7.3h-2.5V639.7z M703.5,648.6c-0.6,0.3-2.1,0.8-3.9,0.8c-4.1,0-6.8-2.8-6.8-7c0-4.2,2.9-7.3,7.3-7.3
		c1.5,0,2.8,0.4,3.4,0.7l-0.6,1.9c-0.6-0.3-1.5-0.6-2.9-0.6c-3.1,0-4.8,2.3-4.8,5.2c0,3.2,2,5.1,4.7,5.1c1.4,0,2.3-0.4,3-0.7
		L703.5,648.6z M706.4,629h2.5v8.5h0.1c0.4-0.7,1-1.3,1.8-1.8c0.7-0.4,1.6-0.7,2.5-0.7c1.8,0,4.8,1.1,4.8,5.8v8.1h-2.5v-7.8
		c0-2.2-0.8-4.1-3.2-4.1c-1.6,0-2.9,1.1-3.3,2.5c-0.1,0.3-0.2,0.7-0.2,1.2v8.2h-2.5V629z M724.8,631.6c0,0.8-0.6,1.5-1.6,1.5
		c-0.9,0-1.5-0.7-1.5-1.5c0-0.9,0.6-1.6,1.6-1.6C724.3,630,724.8,630.7,724.8,631.6z M722.1,649.1v-13.7h2.5v13.7H722.1z
		 M731.7,631.5v3.9h3.6v1.9h-3.6v7.4c0,1.7,0.5,2.7,1.9,2.7c0.6,0,1.1-0.1,1.4-0.2l0.1,1.9c-0.5,0.2-1.2,0.3-2.2,0.3
		c-1.2,0-2.1-0.4-2.7-1c-0.7-0.7-1-1.9-1-3.6v-7.5h-2.1v-1.9h2.1v-3.3L731.7,631.5z M739.2,642.7c0.1,3.4,2.2,4.7,4.7,4.7
		c1.8,0,2.9-0.3,3.8-0.7l0.4,1.8c-0.9,0.4-2.4,0.8-4.5,0.8c-4.2,0-6.7-2.8-6.7-6.9c0-4.1,2.4-7.4,6.4-7.4c4.5,0,5.6,3.9,5.6,6.4
		c0,0.5-0.1,0.9-0.1,1.2H739.2z M746.5,640.9c0-1.6-0.6-4-3.4-4c-2.5,0-3.6,2.3-3.8,4H746.5z M761.7,648.6c-0.6,0.3-2.1,0.8-3.9,0.8
		c-4.1,0-6.8-2.8-6.8-7c0-4.2,2.9-7.3,7.3-7.3c1.5,0,2.8,0.4,3.4,0.7l-0.6,1.9c-0.6-0.3-1.5-0.6-2.9-0.6c-3.1,0-4.8,2.3-4.8,5.2
		c0,3.2,2,5.1,4.7,5.1c1.4,0,2.3-0.4,3-0.7L761.7,648.6z M768,631.5v3.9h3.6v1.9H768v7.4c0,1.7,0.5,2.7,1.9,2.7
		c0.6,0,1.1-0.1,1.4-0.2l0.1,1.9c-0.5,0.2-1.2,0.3-2.2,0.3c-1.2,0-2.1-0.4-2.7-1c-0.7-0.7-1-1.9-1-3.6v-7.5h-2.1v-1.9h2.1v-3.3
		L768,631.5z M785.8,645.4c0,1.4,0,2.7,0.1,3.7h-2.2l-0.1-2.2h-0.1c-0.6,1.1-2.1,2.5-4.5,2.5c-2.1,0-4.7-1.2-4.7-6v-8h2.5v7.6
		c0,2.6,0.8,4.3,3,4.3c1.7,0,2.8-1.2,3.3-2.3c0.1-0.4,0.2-0.8,0.2-1.3v-8.4h2.5V645.4z M789.9,639.7c0-1.6,0-3-0.1-4.3h2.2l0.1,2.7
		h0.1c0.6-1.8,2.1-3,3.8-3c0.3,0,0.5,0,0.7,0.1v2.3c-0.3-0.1-0.5-0.1-0.8-0.1c-1.8,0-3,1.3-3.3,3.2c-0.1,0.3-0.1,0.7-0.1,1.2v7.3
		h-2.5V639.7z M800.3,642.7c0.1,3.4,2.2,4.7,4.7,4.7c1.8,0,2.9-0.3,3.8-0.7l0.4,1.8c-0.9,0.4-2.4,0.8-4.5,0.8
		c-4.2,0-6.7-2.8-6.7-6.9c0-4.1,2.4-7.4,6.4-7.4c4.5,0,5.6,3.9,5.6,6.4c0,0.5-0.1,0.9-0.1,1.2H800.3z M807.5,640.9
		c0-1.6-0.6-4-3.4-4c-2.5,0-3.6,2.3-3.8,4H807.5z"/>
</g>
</svg>
