<?xml version="1.0" encoding="utf-8"?>
<!-- Generator: Adobe Illustrator 18.0.0, SVG Export Plug-In . SVG Version: 6.00 Build 0)  -->
<!DOCTYPE svg PUBLIC "-//W3C//DTD SVG 1.1//EN" "http://www.w3.org/Graphics/SVG/1.1/DTD/svg11.dtd">
<svg version="1.1" id="Layer_1" xmlns="http://www.w3.org/2000/svg" xmlns:xlink="http://www.w3.org/1999/xlink" x="0px" y="0px"
	 viewBox="0 0 372.7 61.8" style="enable-background:new 0 0 372.7 61.8;" xml:space="preserve">
<style type="text/css">
	.st0{fill:#231E20;}
</style>
<path class="st0" d="M2.6,3.9H0.3V0.4h11c5.8,0,8.8,3,8.8,7.3c0,5.1-4,7.3-8.8,7.3H7.6v5.7h2.4v3.5H0.3v-3.5h2.4V3.9z M10.7,11.6
	c2.5,0,4.1-1.4,4.1-3.8c0-2.2-1.4-3.9-4.2-3.9h-3v7.7H10.7z M26.1,16.4c0.1,2.8,2.3,4.6,5.7,4.6c2.9,0,4.7-0.8,5.5-1.1v3.7
	c-0.7,0.3-2.7,1.1-6.6,1.1c-6.9,0-9.8-4.3-9.8-9.2c0-5.6,3.4-9.4,9-9.4c6.1,0,8.6,4.6,8.6,10.4H26.1z M33.3,13.2
	c0-2.5-1.4-3.9-3.6-3.9c-2.2,0-3.4,1.4-3.6,3.9H33.3z M158.2,16.4c0.1,2.8,2.3,4.6,5.7,4.6c2.9,0,4.7-0.8,5.5-1.1v3.7
	c-0.7,0.3-2.7,1.1-6.6,1.1c-6.9,0-9.8-4.3-9.8-9.2c0-5.6,3.4-9.4,9-9.4c6.1,0,8.6,4.6,8.6,10.4H158.2z M165.4,13.2
	c0-2.5-1.4-3.9-3.6-3.9c-2.2,0-3.4,1.4-3.6,3.9H165.4z M42.9,9.9h-2.3V6.4h6.5l0.1,2.3h0.1C47.6,8.3,49.2,6,52.8,6
	c4.5,0,6.9,3.2,6.9,7.1v7.6h2v3.5H53v-3.5h1.9V14c0-2.5-1.4-3.8-3.6-3.8c-2,0-3.6,1.1-3.6,3.8v6.8h2v3.5h-8.8v-3.5h1.9V9.9z
	 M66.1,9.9h-2.3V6.4h6.5l0.1,2.3h0.1C70.9,8.3,72.4,6,76,6c4.5,0,6.9,3.2,6.9,7.1v7.6h2v3.5h-8.8v-3.5h1.9V14c0-2.5-1.4-3.8-3.6-3.8
	c-2,0-3.6,1.1-3.6,3.8v6.8h2v3.5h-8.8v-3.5h1.9V9.9z M142.2,2.6h4.8v3.8h4.8v3.5H147v7.9c0,2.4,0.8,3.1,2.8,3.1
	c0.7,0,1.8-0.2,2.1-0.3v3.4c-0.4,0.1-2.1,0.6-3.9,0.6c-3.5,0-5.8-1.9-5.8-5V9.9h-2.4V6.4h2.4V2.6z M110,2.6h4.8v3.8h4.8v3.5h-4.8
	v7.9c0,2.4,0.8,3.1,2.8,3.1c0.7,0,1.8-0.2,2.1-0.3v3.4c-0.4,0.1-2.1,0.6-3.9,0.6c-3.5,0-5.8-1.9-5.8-5V9.9h-2.4V6.4h2.4V2.6z
	 M132.7,12.9c0-2.5-1.2-3.4-3.6-3.4c-1.5,0-2.6,0.4-3,0.5v2.4h-3.9V7.9c0.6-0.4,3.5-1.8,6.8-1.8c5,0,8.2,2,8.2,7c0,2.9,0,7.7,0,7.7
	h1.8v3.5h-5.8l-0.1-2.4h-0.1c-0.4,0.5-1.7,2.8-5.7,2.8c-4,0-6-2.4-6-5.2c0-3.4,2.6-5.7,9.1-5.7c0.3,0,1.8,0,2.1,0V12.9z M131.3,16.7
	c-3.9,0-5.1,0.8-5.1,2.4c0,1.1,0.7,2.1,2.6,2.1c1.9,0,3.8-1.5,3.8-4.5H131.3z M100.4,4.1c-0.4-0.1-1.8-0.6-3-0.6
	c-2.8,0-3.9,1.5-3.9,2.8c0,1.7,1.3,2.5,2.8,2.9l2.4,0.6c3.3,0.9,7,2.3,7,7.2c0,4.5-2.9,7.6-9.4,7.6c-2.5,0-5.1-0.3-8.1-1.3V17h4.3
	v3.1c0.7,0.2,2.6,0.7,4.3,0.7c2.5,0,3.8-1.1,3.8-2.9c0-1.5-0.8-2.6-3.9-3.4l-2-0.6c-4.7-1.3-6.2-3.5-6.2-7.2C88.3,3,90.9,0,97.3,0
	c2.8,0,5.5,0.5,7.4,1.3V7h-4.3V4.1z M14.4,55.3c-0.9,0.5-2.7,0.9-5,0.9C4,56.2,0,52.8,0,46.5c0-6,4-10,9.9-10c2.4,0,3.9,0.5,4.5,0.8
	l-0.6,2c-0.9-0.4-2.3-0.8-3.8-0.8c-4.5,0-7.4,2.9-7.4,7.8c0,4.7,2.7,7.7,7.3,7.7c1.5,0,3-0.3,4-0.8L14.4,55.3z M29.5,48.9
	c0,5.1-3.5,7.3-6.8,7.3c-3.7,0-6.6-2.7-6.6-7c0-4.6,3-7.3,6.8-7.3C26.8,41.9,29.5,44.8,29.5,48.9z M18.6,49.1c0,3,1.7,5.3,4.2,5.3
	c2.4,0,4.2-2.2,4.2-5.3c0-2.3-1.2-5.3-4.1-5.3C19.9,43.8,18.6,46.5,18.6,49.1z M32.6,35.8h2.5v20h-2.5V35.8z M39.3,35.8h2.5v20h-2.5
	V35.8z M47.3,49.5c0.1,3.4,2.2,4.7,4.7,4.7c1.8,0,2.9-0.3,3.8-0.7l0.4,1.8c-0.9,0.4-2.4,0.8-4.5,0.8c-4.2,0-6.7-2.8-6.7-6.9
	c0-4.1,2.4-7.4,6.4-7.4c4.5,0,5.6,3.9,5.6,6.4c0,0.5-0.1,0.9-0.1,1.2H47.3z M54.6,47.7c0-1.6-0.6-4-3.4-4c-2.5,0-3.6,2.3-3.8,4H54.6
	z M71.9,42.2c-0.1,1-0.1,2.1-0.1,3.8v7.9c0,3.1-0.6,5.1-1.9,6.2c-1.3,1.2-3.2,1.6-5,1.6c-1.6,0-3.4-0.4-4.5-1.1l0.6-1.9
	c0.9,0.6,2.3,1.1,4,1.1c2.5,0,4.4-1.3,4.4-4.8v-1.5h-0.1c-0.8,1.3-2.2,2.3-4.3,2.3c-3.4,0-5.8-2.9-5.8-6.7c0-4.6,3-7.3,6.2-7.3
	c2.4,0,3.7,1.2,4.3,2.4h0.1l0.1-2.1H71.9z M69.3,47.6c0-0.4,0-0.8-0.1-1.1c-0.5-1.4-1.7-2.6-3.5-2.6c-2.4,0-4.1,2-4.1,5.2
	c0,2.7,1.4,4.9,4,4.9c1.5,0,2.9-1,3.4-2.5c0.1-0.4,0.2-0.9,0.2-1.3V47.6z M77.2,49.5c0.1,3.4,2.2,4.7,4.7,4.7c1.8,0,2.9-0.3,3.8-0.7
	l0.4,1.8c-0.9,0.4-2.4,0.8-4.5,0.8c-4.2,0-6.7-2.8-6.7-6.9c0-4.1,2.4-7.4,6.4-7.4c4.5,0,5.6,3.9,5.6,6.4c0,0.5-0.1,0.9-0.1,1.2H77.2
	z M84.5,47.7c0-1.6-0.6-4-3.4-4c-2.5,0-3.6,2.3-3.8,4H84.5z M108.4,48.9c0,5.1-3.5,7.3-6.8,7.3c-3.7,0-6.6-2.7-6.6-7
	c0-4.6,3-7.3,6.8-7.3C105.7,41.9,108.4,44.8,108.4,48.9z M97.5,49.1c0,3,1.7,5.3,4.2,5.3c2.4,0,4.2-2.2,4.2-5.3
	c0-2.3-1.2-5.3-4.1-5.3C98.8,43.8,97.5,46.5,97.5,49.1z M111.7,55.9V44.1h-1.9v-1.9h1.9v-0.6c0-1.9,0.4-3.7,1.6-4.8
	c0.9-0.9,2.2-1.3,3.3-1.3c0.9,0,1.6,0.2,2.1,0.4l-0.3,1.9c-0.4-0.2-0.9-0.3-1.6-0.3c-2.1,0-2.7,1.9-2.7,4v0.7h3.3v1.9h-3.3v11.8
	H111.7z M128.9,49.9l-2,6h-2.5l6.5-19h3l6.5,19h-2.6l-2-6H128.9z M135.1,48l-1.9-5.5c-0.4-1.2-0.7-2.4-1-3.5h-0.1
	c-0.3,1.1-0.6,2.3-1,3.4l-1.9,5.5H135.1z M142.9,46.5c0-1.6,0-3-0.1-4.3h2.2l0.1,2.7h0.1c0.6-1.8,2.1-3,3.8-3c0.3,0,0.5,0,0.7,0.1
	v2.3c-0.3-0.1-0.5-0.1-0.8-0.1c-1.8,0-3,1.3-3.3,3.2c-0.1,0.3-0.1,0.7-0.1,1.2v7.3h-2.5V46.5z M155.8,38.3v3.9h3.6v1.9h-3.6v7.4
	c0,1.7,0.5,2.7,1.9,2.7c0.6,0,1.1-0.1,1.4-0.2l0.1,1.9c-0.5,0.2-1.2,0.3-2.2,0.3c-1.2,0-2.1-0.4-2.7-1c-0.7-0.7-1-1.9-1-3.6v-7.5
	h-2.1v-1.9h2.1v-3.3L155.8,38.3z M161.8,53.3c0.7,0.5,2,1,3.3,1c1.8,0,2.7-0.9,2.7-2c0-1.2-0.7-1.8-2.5-2.5
	c-2.5-0.9-3.6-2.2-3.6-3.9c0-2.2,1.8-4,4.7-4c1.4,0,2.6,0.4,3.4,0.8l-0.6,1.8c-0.5-0.3-1.5-0.8-2.8-0.8c-1.5,0-2.3,0.8-2.3,1.9
	c0,1.1,0.8,1.6,2.6,2.3c2.4,0.9,3.6,2.1,3.6,4.1c0,2.4-1.9,4.1-5.1,4.1c-1.5,0-2.9-0.4-3.8-0.9L161.8,53.3z M186.8,55.9l-0.2-1.7
	h-0.1c-0.8,1.1-2.2,2-4.2,2c-2.8,0-4.2-1.9-4.2-3.9c0-3.3,2.9-5.1,8.2-5.1v-0.3c0-1.1-0.3-3.2-3.1-3.2c-1.3,0-2.6,0.4-3.6,1
	l-0.6-1.6c1.1-0.7,2.8-1.2,4.5-1.2c4.2,0,5.2,2.9,5.2,5.6v5.1c0,1.2,0.1,2.3,0.2,3.3H186.8z M186.4,48.9c-2.7-0.1-5.8,0.4-5.8,3.1
	c0,1.6,1.1,2.4,2.3,2.4c1.8,0,2.9-1.1,3.3-2.3c0.1-0.3,0.1-0.5,0.1-0.8V48.9z M192.8,45.9c0-1.4,0-2.6-0.1-3.7h2.2l0.1,2.3h0.1
	c0.7-1.3,2.3-2.6,4.5-2.6c1.9,0,4.8,1.1,4.8,5.8v8.2H202V48c0-2.2-0.8-4-3.2-4c-1.6,0-2.9,1.2-3.3,2.5c-0.1,0.3-0.2,0.7-0.2,1.2v8.2
	h-2.5V45.9z M220.3,35.8v16.5c0,1.2,0,2.6,0.1,3.5h-2.2l-0.1-2.4H218c-0.8,1.5-2.4,2.7-4.7,2.7c-3.3,0-5.8-2.8-5.8-6.9
	c0-4.5,2.8-7.3,6.1-7.3c2.1,0,3.5,1,4.1,2.1h0.1v-8.2H220.3z M217.8,47.8c0-0.3,0-0.7-0.1-1c-0.4-1.6-1.7-2.9-3.6-2.9
	c-2.6,0-4.1,2.3-4.1,5.3c0,2.8,1.4,5.1,4,5.1c1.7,0,3.2-1.1,3.6-3c0.1-0.3,0.1-0.7,0.1-1.1V47.8z M233.6,49.9l-2,6H229l6.5-19h3
	l6.5,19h-2.6l-2-6H233.6z M239.8,48l-1.9-5.5c-0.4-1.2-0.7-2.4-1-3.5h-0.1c-0.3,1.1-0.6,2.3-1,3.4l-1.9,5.5H239.8z M247.6,46.5
	c0-1.6,0-3-0.1-4.3h2.2l0.1,2.7h0.1c0.6-1.8,2.1-3,3.8-3c0.3,0,0.5,0,0.7,0.1v2.3c-0.3-0.1-0.5-0.1-0.8-0.1c-1.8,0-3,1.3-3.3,3.2
	c-0.1,0.3-0.1,0.7-0.1,1.2v7.3h-2.5V46.5z M266.3,55.4c-0.6,0.3-2.1,0.8-3.9,0.8c-4.1,0-6.8-2.8-6.8-7c0-4.2,2.9-7.3,7.3-7.3
	c1.5,0,2.8,0.4,3.4,0.7l-0.6,1.9c-0.6-0.3-1.5-0.6-2.9-0.6c-3.1,0-4.8,2.3-4.8,5.2c0,3.2,2,5.1,4.7,5.1c1.4,0,2.3-0.4,3-0.7
	L266.3,55.4z M269.2,35.8h2.5v8.5h0.1c0.4-0.7,1-1.3,1.8-1.8c0.7-0.4,1.6-0.7,2.5-0.7c1.8,0,4.8,1.1,4.8,5.8v8.1h-2.5V48
	c0-2.2-0.8-4.1-3.2-4.1c-1.6,0-2.9,1.1-3.3,2.5c-0.1,0.3-0.2,0.7-0.2,1.2v8.2h-2.5V35.8z M287.6,38.4c0,0.8-0.6,1.5-1.6,1.5
	c-0.9,0-1.5-0.7-1.5-1.5c0-0.9,0.6-1.6,1.6-1.6C287,36.8,287.6,37.5,287.6,38.4z M284.9,55.9V42.2h2.5v13.7H284.9z M294.5,38.3v3.9
	h3.6v1.9h-3.6v7.4c0,1.7,0.5,2.7,1.9,2.7c0.6,0,1.1-0.1,1.4-0.2l0.1,1.9c-0.5,0.2-1.2,0.3-2.2,0.3c-1.2,0-2.1-0.4-2.7-1
	c-0.7-0.7-1-1.9-1-3.6v-7.5h-2.1v-1.9h2.1v-3.3L294.5,38.3z M302,49.5c0.1,3.4,2.2,4.7,4.7,4.7c1.8,0,2.9-0.3,3.8-0.7l0.4,1.8
	c-0.9,0.4-2.4,0.8-4.5,0.8c-4.2,0-6.7-2.8-6.7-6.9c0-4.1,2.4-7.4,6.4-7.4c4.5,0,5.6,3.9,5.6,6.4c0,0.5-0.1,0.9-0.1,1.2H302z
	 M309.3,47.7c0-1.6-0.6-4-3.4-4c-2.5,0-3.6,2.3-3.8,4H309.3z M324.5,55.4c-0.6,0.3-2.1,0.8-3.9,0.8c-4.1,0-6.8-2.8-6.8-7
	c0-4.2,2.9-7.3,7.3-7.3c1.5,0,2.8,0.4,3.4,0.7l-0.6,1.9c-0.6-0.3-1.5-0.6-2.9-0.6c-3.1,0-4.8,2.3-4.8,5.2c0,3.2,2,5.1,4.7,5.1
	c1.4,0,2.3-0.4,3-0.7L324.5,55.4z M330.8,38.3v3.9h3.6v1.9h-3.6v7.4c0,1.7,0.5,2.7,1.9,2.7c0.6,0,1.1-0.1,1.4-0.2l0.1,1.9
	c-0.5,0.2-1.2,0.3-2.2,0.3c-1.2,0-2.1-0.4-2.7-1c-0.7-0.7-1-1.9-1-3.6v-7.5h-2.1v-1.9h2.1v-3.3L330.8,38.3z M348.6,52.1
	c0,1.4,0,2.7,0.1,3.7h-2.2l-0.1-2.2h-0.1c-0.6,1.1-2.1,2.5-4.5,2.5c-2.1,0-4.7-1.2-4.7-6v-8h2.5v7.6c0,2.6,0.8,4.3,3,4.3
	c1.7,0,2.8-1.2,3.3-2.3c0.1-0.4,0.2-0.8,0.2-1.3v-8.4h2.5V52.1z M352.7,46.5c0-1.6,0-3-0.1-4.3h2.2l0.1,2.7h0.1c0.6-1.8,2.1-3,3.8-3
	c0.3,0,0.5,0,0.7,0.1v2.3c-0.3-0.1-0.5-0.1-0.8-0.1c-1.8,0-3,1.3-3.3,3.2c-0.1,0.3-0.1,0.7-0.1,1.2v7.3h-2.5V46.5z M363,49.5
	c0.1,3.4,2.2,4.7,4.7,4.7c1.8,0,2.9-0.3,3.8-0.7l0.4,1.8c-0.9,0.4-2.4,0.8-4.5,0.8c-4.2,0-6.7-2.8-6.7-6.9c0-4.1,2.4-7.4,6.4-7.4
	c4.5,0,5.6,3.9,5.6,6.4c0,0.5-0.1,0.9-0.1,1.2H363z M370.3,47.7c0-1.6-0.6-4-3.4-4c-2.5,0-3.6,2.3-3.8,4H370.3z"/>
</svg>
