<?xml version="1.0" encoding="utf-8"?>
<!-- Generator: Adobe Illustrator 18.0.0, SVG Export Plug-In . SVG Version: 6.00 Build 0)  -->
<!DOCTYPE svg PUBLIC "-//W3C//DTD SVG 1.1//EN" "http://www.w3.org/Graphics/SVG/1.1/DTD/svg11.dtd">
<svg version="1.1" xmlns="http://www.w3.org/2000/svg" xmlns:xlink="http://www.w3.org/1999/xlink" x="0px" y="0px"
	 viewBox="499.8 507 201.9 222.6" enable-background="new 499.8 507 201.9 222.6" xml:space="preserve">
<g id="Layer_1">
</g>
<g id="Layer_2">
	<g>
		<g id="XMLID_1_">
			<g id="XMLID_5_">
				<path id="XMLID_6_" fill="#FFFFFF" d="M600.7,729.6c-44.8-26.7-100.9-65.2-100.9-133.3v-71.7c20.4-7.8,52.3-17.6,100.9-17.6
					c48.9,0,82.6,10.6,100.9,17.6v71.9C701.4,664.9,642.9,704.5,600.7,729.6z"/>
			</g>
			<g id="XMLID_2_">
				<path id="XMLID_4_" fill="#1E407C" d="M631,636.4c0-1.6,1.3-3.9,1.3-6c0-2.6-3.1-3.4-5.4-3.6c-4.9-0.8-6.7-0.5-6.7-1.6
					c0-0.8,0.8-1.6,1.6-2.8c1.3-2.1,4.7-2.6,6.2-2.8c2.3-0.3,4.7-0.5,7.8-0.5c3.4,0,6.2,0.5,7.5,0.8c3.1,0.5,3.6,1.8,3.6,3.4
					c0,0.3,0,1,0,1.6c0,1.6-1.3,2.3-3.4,2.6c-0.5,0-1.3,0.3-1.6,0.3c-1.6,0.3-3.6,0.5-4.1,2.6c-1.6,4.1-4.1,7.5-6,7.5
					C631.2,637.2,631,636.9,631,636.4z M635.4,568.1c-0.3,0-0.8-0.3-0.8-1s0.5-1.6,1.6-3.1c2.6-3.4,6-7.5,7.2-7.5
					c0.5,0,1,0.5,1.8,1.8c0.5,0.8,0.8,2.3,0.8,3.6c0,4.4-1.6,7.8-3.9,11.1C640.8,572.2,638.7,570.1,635.4,568.1z M561.4,576.6
					c1,0,2.1-0.8,3.6-2.6c3.9-4.1,7.5-4.9,7.5-6.7c0-0.8-0.5-1.6-1-2.3c-4.1-6.5-6-9.8-8.3-14.5c-0.8-1.6-2.1-2.8-2.8-2.8
					c-1.3,0-2.8,1.6-3.9,3.1c-1.3,2.1-2.3,4.1-2.3,6.2c0,3.1,0.8,8.8,2.1,12.4S559.6,576.6,561.4,576.6z M607.4,591.4
					c0-2.6-2.8-6.5-8-6.5c-4.7,0-8,3.4-9.1,6.2c1,2.1,2.1,4.4,6.5,5.7c0.5,0.3,1.3,0.3,1.3,0.8c0,0.8-0.8,1-2.3,1
					c-4.9,0-8-2.1-9.3-3.9c-1.3,0.3-2.8,0.8-4.7,0.8c-1.6,0-2.3-1-2.3-2.3c0-0.8,0.3-1.8,0.8-2.8c0.3-0.5,0.5-1.3,0.8-1.6
					c0.8-1.6,2.1-4.9,6.5-7.5c0.5-0.3,1.8-1,2.6-1.6c2.6-1.6,4.7-1.8,7.5-1.8c0.3,0,2.1,0,2.3,0c3.6,0,5.4,1,7.2,2.3
					c3.4,2.8,5.2,4.4,5.2,6.2c0,2.3,0,4.1-2.1,6.5c-1.6,2.1-3.9,3.4-5.4,3.4c-0.5,0-0.5-0.3-0.5-0.5s0.3-0.5,0.8-0.8
					C606.4,594,606.9,592.1,607.4,591.4z M629.4,662c-0.8,0.3-2.6,0.5-10.1,0.5c-11.4,0-13.5-2.8-13.5-4.9c0-3.6,16.3-6.5,22.8-6.5
					c6.2,0,8.8,2.1,8.8,3.6C637.7,656.3,634.9,660.7,629.4,662z M563.4,695.4c11.9,9.3,24.6,17.6,37,24.8l0,0l0,0
					c0-11.1-0.3-17.9,7.2-25.9c3.1-3.1,6.2-6.5,9.1-9.6c2.1-2.3,3.9-3.9,4.9-3.9c0.8,0,1,0.3,1,1.3s0.5,4.7,2.8,9.1
					c2.8,5.4,7,6.2,8.3,6.5c32.9-24.1,60-55.9,60-101.4c0-25.1,0-66.2,0-66.2c-8-2.8-40.9-15.3-93.2-15.3c-52.3,0-85.4,12.4-93.2,15
					c0,0,0,41.4,0,66.2c0,19.9,5.2,37.5,14,52.8c0.8-9.3,7-13.7,7-22.8c0-6.2-1.8-10.4-1.8-15.5c0-9.6,12.9-29.2,19.7-37.3
					c0.3-0.3,0.5-0.8,1.3-0.8c0.5,0,0.8,0.3,1,0.8c0.8,1,1,1.6,1.8,1.6s1-0.5,1-1c0-1.6-1.8-4.4-1.8-15.3c0-7.5,1.8-9.3,6.5-13.7
					c0.8-0.8,3.6-3.4,6-3.4c2.8,0,4.1,1.6,6,3.4c2.8,2.8,7,8.3,7.8,9.1c0.3,0.3,0.3,0.5,0.8,0.5c1.3,0,2.6-0.5,8.3-0.5
					c10.6,0,26.7,1.6,34.9,4.4c4.1,1.3,5.2,2.3,6.2,2.3c0.5,0,0.5-0.3,0.5-0.8s-1-1.3-1-2.1c0-0.5,0.5-0.8,0.8-1
					c6.2-3.4,11.4-5.7,16.3-5.7c2.8,0,4.1,2.3,5.4,4.9c1,1.8,1.8,4.4,1.8,7c0,6.5-2.6,10.6-4.4,13.2c1,1,2.3,2.3,3.1,3.4
					c1.6,1.8,3.1,4.1,3.1,6.5c0,1-0.5,2.6-0.8,3.9c0,0.5-0.5,1.8-1.6,1.8c-0.8,0-1-1-1-1.8c0-0.3,0-0.5,0-0.8c0-1.8-0.5-4.4-2.3-6.2
					c-2.1-2.1-3.9-3.6-6.2-3.6c-0.3,0-0.5,0-0.8,0c-3.9,0-5.4,1.6-6.5,2.6c-1,1-2.1,2.6-2.1,4.7c0,1,0.8,2.6,1.8,4.7
					c0.5,1.3,2.1,4.1,3.1,5.7c0.8,1.3,1.8,1.8,2.8,1.8c2.6,0,4.9-0.3,4.9-1.3c0-0.3,0-0.5-0.5-0.5c-0.3,0-0.5,0-0.8,0
					c-3.4,0-5.4-4.4-7-8.5c1.3-1.3,2.8-2.6,5.4-2.6c3.4,0,5.7,2.3,5.7,5.4c0,1.6-0.5,2.8-0.8,3.4c-0.5,0.5-0.5,0.8-0.5,0.8
					c0,0.5,0.5,0.5,1.6,0.8c0.3,0,1,0.3,1.3,0.3c1,0.3,2.1,1.3,2.6,2.3c0.3,0.8,1,2.6,1,3.1c0.5,1.8,1.6,4.1,1.6,7.2s-0.3,3.9-1,7
					c-1,3.9-1.6,5.4-1.8,7.5c0.3,0.8,0.5,0.8,0.5,1.3c0.5,1.3,1.3,3.6,1.3,6c0,0.8,0,2.1,0,2.1c0,3.9-1.6,7-3.4,9.3
					c-1,2.1-2.8,4.7-4.1,6c-0.8,0.8-1.6,1.6-2.8,1.6c-0.5,0-1-0.3-1.8-0.3c-0.8-0.3-2.1-0.5-2.6-0.8c-2.3-0.5-3.1-2.1-3.9-4.1
					c0-0.3-0.5-1.3-0.5-1.6c-0.5-1.3-0.8-2.3-1.8-2.3c-0.8,0-1.3,0.5-2.1,1.3c-2.3,3.4-3.6,4.7-7.8,5.7c-1.6,0.3-4.4,1-6,1.3
					c-2.3,0.5-6.7,1.8-9.3,1.8c-0.5,0-1,0-1.6,0c-3.4-0.5-5.7-0.8-9.8-5.7c-5.7-6.7-5.2-7.8-5.4-17.1c0-1-0.3-2.3-1.6-2.3
					c-1,0-1.3,2.1-1.8,4.7c-0.5,3.4-1.3,6.7-2.8,6.7c-1,0-1.8-0.3-3.6-0.8c-1.6-0.5-6.7-2.3-9.6-3.1c-3.6-1.3-7.2-2.3-8.8-5.4
					c-0.8-1.6-1.8-4.4-2.6-6c-0.5-1-0.8-1.6-1.6-1.6c-1,0-1.3,1.3-1.3,2.1c0,1-0.5,3.4-0.5,4.9c-0.5,6.5-1.8,9.3-4.7,12.7
					c-1.3,1.6-2.3,3.4-3.9,5.2c-2.8,3.9-4.7,7.8-4.4,15c0,0.5,0,3.1,0,4.4C542.2,675.5,545.1,680.6,563.4,695.4z"/>
				<path id="XMLID_3_" fill="#96BEE6" d="M650.1,598.9L650.1,598.9c0.3,0.8,1,2.6,1,3.1c0.5,1.8,1.6,4.1,1.6,7.2s-0.3,3.9-1,7
					c-1,3.9-1.6,5.4-1.8,7.5c-0.3-0.5-6-10.4-6.2-11.1c-0.5-0.8-0.8-1.6-0.8-2.6s0.5-1.6,1.6-2.3c0.8-0.5,1.6-1,2.3-1.3
					c2.8-1.6,3.6-3.4,3.6-5.2C650.4,600.4,650.1,599.6,650.1,598.9z M625.5,614.4c0.3,0.8,0.5,1.6,0.5,2.3c0,1.6-0.3,1.8-1,2.8
					c-0.5,0.5-1,0.8-1.6,1.3c-0.8,0.5-1.6,1-2.1,1.6c-1,1.3-1.6,2.1-1.6,2.8c0,0.3,0,0.5,0.3,0.5c-1-0.8-1.6-2.1-1.6-3.1
					s0.3-1.6,0.3-2.6c0-0.8-0.3-1.6-0.3-2.1c-1.6-5.2-4.1-11.4-5.7-15.5c-1.6-4.4-2.8-6.7-4.9-6.7c-1,0-2.1,0.5-3.1,0.5
					c1.6,0,3.9-1.3,5.4-3.4c1.8-2.3,2.1-4.1,2.1-6.5c0-1-0.5-1.8-1.3-2.8c2.3,2.3,3.9,5.4,5.4,8.8
					C620.1,599.9,623.2,607.9,625.5,614.4z M542,664.3c0-1.3,0-3.9,0-4.4c0-7.2,1.6-11.1,4.4-15c1.3-1.8,2.6-3.6,3.9-5.2
					c2.8-3.6,4.1-6.2,4.7-12.7c0.3-1.6,0.5-3.9,0.5-4.9s0.3-2.1,1.3-2.1c0.8,0,1,0.5,1.6,1.6c0.5,1.6,1.8,4.4,2.6,6
					c1.6,3.4,4.9,4.4,8.8,5.4c2.8,0.8,8,2.6,10.1,3.4c1.8,0.5,2.6,0.8,3.6,0.8c1.6,0,2.3-3.4,2.8-6.7c0.3-2.8,0.8-4.7,1.8-4.7
					s1.3,1.3,1.6,2.3c0.3,9.3-0.3,10.1,5.4,17.1c4.1,4.9,6.5,5.2,9.8,5.7c-1.3-0.3-2.8-1.8-2.8-4.9c0-0.5,0-2.8,0-3.4
					c0-1.6,0.3-3.4,1-5.2c0.3-0.8,0.8-2.6,1.3-3.6c0.8-1.8,0.3-2.1,0.3-3.4c0-1.3-0.5-2.6-1.3-5.4c-0.5-1.6-1.3-3.9-1.8-5.7
					c-2.1-5.7-2.8-7.2-9.8-8c-2.3-0.3-11.9-1.6-14-2.1c-7.8-1-14-1.6-17.1-6.7c-3.9-6.2-3.4-13.7-7-13.7c-1.8,0-2.6,1.8-2.6,4.7
					s1,7.8,1,16c0,7.2-0.8,9.3-4.9,14.5c-1,1.3-2.6,3.4-3.6,4.7c-3.1,3.9-4.4,6.2-4.4,10.6C539.4,651.1,541.2,659.9,542,664.3z
					 M621.4,692.3c0.3-2.8,1.6-7.8,1.6-9.6l0,0c0-1-0.3-1.3-1-1.3c-1,0-2.8,1.6-4.9,3.9c-2.8,2.8-6,6.2-9.1,9.6
					c-7.5,8-7.2,14.5-7.2,25.9l0,0c8.5-5.2,16-10.1,21.7-14C621.7,701.9,620.9,698.5,621.4,692.3z"/>
			</g>
		</g>
	</g>
</g>
</svg>
